<svg width="35" height="35" viewBox="0 0 35 35" fill="none" xmlns="http://www.w3.org/2000/svg">
<g clip-path="url(#clip0_481_10)">
<path d="M12.1926 1.15111C8.69557 2.36427 5.67973 4.66688 3.58806 7.72073C1.49639 10.7746 0.439155 14.4187 0.571638 18.1178C0.704121 21.8169 2.01934 25.3761 4.32412 28.2725C6.62889 31.1689 9.80173 33.2498 13.3766 34.2097C16.2748 34.9575 19.3113 34.9904 22.225 34.3054C24.8646 33.7125 27.3049 32.4443 29.3071 30.6249C31.3909 28.6735 32.9034 26.1911 33.6821 23.4445C34.5284 20.4576 34.679 17.3166 34.1223 14.2624H17.8473V21.0136H27.2727C27.0843 22.0904 26.6806 23.1181 26.0858 24.0352C25.491 24.9523 24.7173 25.74 23.811 26.3511C22.66 27.1124 21.3626 27.6247 20.002 27.855C18.6374 28.1088 17.2377 28.1088 15.8731 27.855C14.49 27.5691 13.1816 26.9982 12.0313 26.1788C10.1833 24.8707 8.79564 23.0122 8.06644 20.8687C7.32492 18.685 7.32492 16.3176 8.06644 14.1339C8.5855 12.6033 9.44357 11.2096 10.5766 10.057C11.8732 8.7137 13.5148 7.75353 15.3212 7.28179C17.1276 6.81005 19.029 6.84499 20.8168 7.38275C22.2135 7.81148 23.4906 8.56055 24.5465 9.57025C25.6093 8.51296 26.6702 7.45294 27.7293 6.39018C28.2762 5.81869 28.8723 5.27455 29.411 4.68939C27.7992 3.18952 25.9074 2.02244 23.8438 1.25502C20.0859 -0.109461 15.9742 -0.14613 12.1926 1.15111Z" fill="white"/>
<path d="M12.1928 1.15122C15.974 -0.146904 20.0858 -0.1112 23.8439 1.25239C25.9079 2.02503 27.7989 3.19773 29.4084 4.70317C28.8615 5.28833 28.2846 5.83521 27.7268 6.40396C26.6658 7.46307 25.6058 8.51854 24.5467 9.57036C23.4908 8.56066 22.2136 7.81159 20.817 7.38286C19.0297 6.84321 17.1284 6.80626 15.3215 7.27606C13.5146 7.74587 11.8721 8.70428 10.574 10.0461C9.44099 11.1988 8.58292 12.5924 8.06387 14.1231L2.39551 9.73442C4.42444 5.71096 7.9374 2.63332 12.1928 1.15122Z" fill="#E33629"/>
<path d="M0.891789 14.082C1.19646 12.5721 1.70227 11.1098 2.3957 9.73438L8.06405 14.134C7.32253 16.3177 7.32253 18.6851 8.06405 20.8688C6.17551 22.3271 4.28606 23.7927 2.3957 25.2656C0.659779 21.8102 0.130355 17.8732 0.891789 14.082Z" fill="#F8BD00"/>
<path d="M17.8469 14.2598H34.1219C34.6786 17.3139 34.528 20.455 33.6817 23.4418C32.903 26.1884 31.3905 28.6709 29.3067 30.6223C27.4774 29.1949 25.6399 27.7785 23.8106 26.3512C24.7175 25.7394 25.4916 24.9509 26.0864 24.0328C26.6813 23.1147 27.0846 22.0859 27.2723 21.0082H17.8469C17.8442 18.7605 17.8469 16.5102 17.8469 14.2598Z" fill="#587DBD"/>
<path d="M2.39258 25.2656C4.28294 23.8073 6.1724 22.3417 8.06094 20.8688C8.79158 23.0131 10.1812 24.8716 12.0312 26.1789C13.1852 26.9945 14.4964 27.5607 15.8813 27.8414C17.2459 28.0952 18.6455 28.0952 20.0102 27.8414C21.3708 27.6111 22.6682 27.0989 23.8191 26.3375C25.6484 27.7649 27.4859 29.1813 29.3152 30.6086C27.3134 32.429 24.873 33.6981 22.2332 34.2918C19.3195 34.9768 16.283 34.944 13.3848 34.1961C11.0925 33.5841 8.95146 32.5052 7.0957 31.027C5.1315 29.4675 3.52722 27.5023 2.39258 25.2656Z" fill="#319F43"/>
</g>
<defs>
<clipPath id="clip0_481_10">
<rect width="35" height="35" fill="white"/>
</clipPath>
</defs>
</svg>
