<svg width="1652" height="983" xmlns="http://www.w3.org/2000/svg" xmlns:xlink="http://www.w3.org/1999/xlink" xml:space="preserve" overflow="hidden"><defs><clipPath id="clip0"><rect x="547" y="610" width="1652" height="983"/></clipPath></defs><g clip-path="url(#clip0)" transform="translate(-547 -610)"><rect x="548" y="611" width="1649" height="980" fill="#FFFFFF"/><g><path d="M1054.53 858.5 1054.53 1379.5M1226.54 858.5 1226.54 1379.5M1397.55 858.5 1397.55 1379.5M1569.55 858.5 1569.55 1379.5M1740.56 858.5 1740.56 1379.5M1912.56 858.5 1912.56 1379.5M2084.5 858.5 2084.5 1379.5" stroke="#D9D9D9" stroke-width="3.4375" stroke-linejoin="round" stroke-miterlimit="10" fill="none"/></g><g><path d="M1055.03 1360.04 883 1360.04 883 1334.04 1055.03 1334.04ZM952.031 1295.04 883 1295.04 883 1269.04 952.031 1269.04ZM986.032 1230.04 883 1230.04 883 1204.04 986.032 1204.04ZM918.03 1165.04 883 1165.04 883 1139.04 918.03 1139.04ZM1021.03 1100.04 883 1100.04 883 1074.04 1021.03 1074.04ZM935.031 1035.03 883 1035.03 883 1009.03 935.031 1009.03Z" fill="#4F81BD"/></g><g><path d="M1244.04 1360.04 1055.03 1360.04 1055.03 1334.04 1244.04 1334.04ZM1027.03 1295.04 952.031 1295.04 952.031 1269.04 1027.03 1269.04ZM1106.04 1230.04 986.032 1230.04 986.032 1204.04 1106.04 1204.04ZM959.031 1165.04 918.03 1165.04 918.03 1139.04 959.031 1139.04ZM1175.04 1100.04 1021.03 1100.04 1021.03 1074.04 1175.04 1074.04ZM997.033 1035.03 935.031 1035.03 935.031 1009.03 997.033 1009.03Z" fill="#C0504D"/></g><g><path d="M1449.05 1360.04 1244.04 1360.04 1244.04 1334.04 1449.05 1334.04ZM1110.04 1295.04 1027.03 1295.04 1027.03 1269.04 1110.04 1269.04ZM1244.04 1230.04 1106.04 1230.04 1106.04 1204.04 1244.04 1204.04ZM1007.03 1165.04 959.031 1165.04 959.031 1139.04 1007.03 1139.04ZM1346.04 1100.04 1175.04 1100.04 1175.04 1074.04 1346.04 1074.04ZM1069.04 1035.03 997.033 1035.03 997.033 1009.03 1069.04 1009.03Z" fill="#9BBB59"/></g><g><path d="M1672.05 1360.04 1449.05 1360.04 1449.05 1334.04 1672.05 1334.04ZM1199.04 1295.04 1110.04 1295.04 1110.04 1269.04 1199.04 1269.04ZM1398.05 1230.04 1244.04 1230.04 1244.04 1204.04 1398.05 1204.04ZM1062.03 1165.04 1007.03 1165.04 1007.03 1139.04 1062.03 1139.04ZM1535.05 1100.04 1346.04 1100.04 1346.04 1074.04 1535.05 1074.04ZM1151.04 1035.03 1069.04 1035.03 1069.04 1009.03 1151.04 1009.03Z" fill="#8064A2"/></g><g><path d="M1913.06 1360.04 1672.05 1360.04 1672.05 1334.04 1913.06 1334.04ZM1295.04 1295.04 1199.04 1295.04 1199.04 1269.04 1295.04 1269.04ZM1569.05 1230.04 1398.05 1230.04 1398.05 1204.04 1569.05 1204.04ZM1123.04 1165.04 1062.03 1165.04 1062.03 1139.04 1123.04 1139.04ZM1741.06 1100.04 1535.05 1100.04 1535.05 1074.04 1741.06 1074.04ZM1244.04 1035.03 1151.04 1035.03 1151.04 1009.03 1244.04 1009.03Z" fill="#4BACC6"/></g><g><path d="M0 0 0.000360892 521" stroke="#D9D9D9" stroke-width="3.4375" stroke-linejoin="round" stroke-miterlimit="10" fill="none" fill-rule="evenodd" transform="matrix(1 0 0 -1 883.5 1379.5)"/></g><g><text fill="#595959" font-family="Calibri,Calibri_MSFontService,sans-serif" font-weight="400" font-size="41" transform="matrix(1 0 0 1 872.88 1445)">0</text></g><g><text fill="#595959" font-family="Calibri,Calibri_MSFontService,sans-serif" font-weight="400" font-size="41" transform="matrix(1 0 0 1 1002.62 1445)">50000</text></g><g><text fill="#595959" font-family="Calibri,Calibri_MSFontService,sans-serif" font-weight="400" font-size="41" transform="matrix(1 0 0 1 1163.72 1445)">100000</text></g><g><text fill="#595959" font-family="Calibri,Calibri_MSFontService,sans-serif" font-weight="400" font-size="41" transform="matrix(1 0 0 1 1335.26 1445)">150000</text></g><g><text fill="#595959" font-family="Calibri,Calibri_MSFontService,sans-serif" font-weight="400" font-size="41" transform="matrix(1 0 0 1 1506.8 1445)">200000</text></g><g><text fill="#595959" font-family="Calibri,Calibri_MSFontService,sans-serif" font-weight="400" font-size="41" transform="matrix(1 0 0 1 1678.35 1445)">250000</text></g><g><text fill="#595959" font-family="Calibri,Calibri_MSFontService,sans-serif" font-weight="400" font-size="41" transform="matrix(1 0 0 1 1849.89 1445)">300000</text></g><g><text fill="#595959" font-family="Calibri,Calibri_MSFontService,sans-serif" font-weight="400" font-size="41" transform="matrix(1 0 0 1 2021.43 1445)">350000</text></g><g><text fill="#595959" font-family="Calibri,Calibri_MSFontService,sans-serif" font-weight="400" font-size="41" transform="matrix(1 0 0 1 580.351 1359)">Pre-Tax - Stocks</text></g><g><text fill="#595959" font-family="Calibri,Calibri_MSFontService,sans-serif" font-weight="400" font-size="41" transform="matrix(1 0 0 1 583.514 1294)">Pre-Tax - Bonds</text></g><g><text fill="#595959" font-family="Calibri,Calibri_MSFontService,sans-serif" font-weight="400" font-size="41" transform="matrix(1 0 0 1 627.307 1229)">Roth - Stocks</text></g><g><text fill="#595959" font-family="Calibri,Calibri_MSFontService,sans-serif" font-weight="400" font-size="41" transform="matrix(1 0 0 1 630.47 1164)">Roth - Bonds</text></g><g><text fill="#595959" font-family="Calibri,Calibri_MSFontService,sans-serif" font-weight="400" font-size="41" transform="matrix(1 0 0 1 577.785 1098)">Taxable - Stocks</text></g><g><text fill="#595959" font-family="Calibri,Calibri_MSFontService,sans-serif" font-weight="400" font-size="41" transform="matrix(1 0 0 1 580.948 1033)">Taxable - Bonds</text></g><g><text fill="#595959" font-family="Verdana,Verdana_MSFontService,sans-serif" font-weight="400" font-size="64" transform="matrix(1 0 0 1 731.459 711)">Stacked Bar Chart of the Median Values </text></g><g><text fill="#595959" font-family="Verdana,Verdana_MSFontService,sans-serif" font-weight="400" font-size="64" transform="matrix(1 0 0 1 785.519 788)">of Total  Investments by Investment</text></g><g><rect x="1022" y="1514" width="23.0001" height="22" fill="#4F81BD"/></g><g><text fill="#595959" font-family="Calibri,Calibri_MSFontService,sans-serif" font-weight="400" font-size="41" transform="matrix(1 0 0 1 1054.4 1536)">2025</text></g><g><rect x="1173" y="1514" width="22" height="22" fill="#C0504D"/></g><g><text fill="#595959" font-family="Calibri,Calibri_MSFontService,sans-serif" font-weight="400" font-size="41" transform="matrix(1 0 0 1 1204.8 1536)">2026</text></g><g><rect x="1323" y="1514" width="23" height="22" fill="#9BBB59"/></g><g><text fill="#595959" font-family="Calibri,Calibri_MSFontService,sans-serif" font-weight="400" font-size="41" transform="matrix(1 0 0 1 1355.2 1536)">2027</text></g><g><rect x="1473" y="1514" width="23" height="22" fill="#8064A2"/></g><g><text fill="#595959" font-family="Calibri,Calibri_MSFontService,sans-serif" font-weight="400" font-size="41" transform="matrix(1 0 0 1 1505.59 1536)">2028</text></g><g><rect x="1624" y="1514" width="22" height="22" fill="#4BACC6"/></g><g><text fill="#595959" font-family="Calibri,Calibri_MSFontService,sans-serif" font-weight="400" font-size="41" transform="matrix(1 0 0 1 1655.99 1536)">2029</text></g><rect x="548.5" y="611.5" width="1649" height="980" stroke="#D9D9D9" stroke-width="3.4375" stroke-linejoin="round" stroke-miterlimit="10" fill="none"/></g></svg>