<svg width="36" height="32" viewBox="0 0 36 32" fill="none" xmlns="http://www.w3.org/2000/svg">
<path fill-rule="evenodd" clip-rule="evenodd" d="M18.875 31.75C17.1545 31.7504 15.4813 31.1875 14.111 30.1471C12.7407 29.1068 11.7488 27.6463 11.287 25.989L11.196 25.6302L7.9235 26.4475C7.68431 26.507 7.43524 26.5154 7.1926 26.472C6.94996 26.4285 6.71923 26.3344 6.51552 26.1956C6.3118 26.0568 6.13971 25.8766 6.0105 25.6666C5.8813 25.4567 5.79789 25.2219 5.76575 24.9775L5.75 24.75L5.75 21.5825C4.76292 20.637 3.95433 19.5213 3.363 18.289L3.1215 17.75L2.25 17.75C1.82137 17.7499 1.40766 17.5926 1.08735 17.3077C0.76704 17.0229 0.562401 16.6304 0.512251 16.2047L0.500001 16L0.500002 10.75C0.499959 10.462 0.571015 10.1784 0.706862 9.92438C0.84271 9.67039 1.03915 9.45386 1.27875 9.294L1.46775 9.1855L3.51175 8.16175C4.34711 6.54188 5.55947 5.14646 7.04675 4.093L7.5 3.7885L7.5 2C7.50006 1.57136 7.65743 1.15766 7.94226 0.837347C8.22708 0.517036 8.61956 0.312398 9.04525 0.262248L9.25 0.249998L14.5 0.249998C14.9286 0.250055 15.3423 0.407423 15.6627 0.692251C15.983 0.97708 16.1876 1.36956 16.2378 1.79525L16.25 2L18 2C18.0001 1.57137 18.1574 1.15766 18.4423 0.837348C18.7271 0.517037 19.1196 0.312399 19.5453 0.262249L19.75 0.249999L25 0.249999C25.4286 0.250056 25.8423 0.407424 26.1627 0.692252C26.483 0.977081 26.6876 1.36956 26.7378 1.79525L26.75 2L26.75 3.7885C28.0147 4.59617 29.1072 5.6461 29.9644 6.87782C30.8215 8.10954 31.4265 9.49869 31.7445 10.9652C32.7767 11.2719 33.6896 11.8886 34.3595 12.7316C35.0294 13.5746 35.4239 14.6032 35.4895 15.678L35.5 16L35.5 16.875C35.4995 17.321 35.3287 17.7501 35.0225 18.0744C34.7163 18.3987 34.2978 18.5939 33.8526 18.6201C33.4073 18.6462 32.9688 18.5013 32.6268 18.215C32.2848 17.9288 32.0649 17.5227 32.0123 17.0797L32 16.875L32 16C31.9977 15.7387 31.9452 15.4966 31.8425 15.2737C31.5758 16.8494 30.9801 18.3512 30.0942 19.6812C29.2083 21.0112 28.0522 22.1397 26.701 22.993C26.8252 24.0947 26.7153 25.2101 26.3787 26.2664C26.042 27.3227 25.4861 28.296 24.7474 29.1226C24.0086 29.9492 23.1037 30.6105 22.0917 31.0633C21.0798 31.5161 19.9836 31.7501 18.875 31.75ZM11 17.75C11.4641 17.75 11.9092 17.5656 12.2374 17.2374C12.5656 16.9092 12.75 16.4641 12.75 16C12.75 15.5359 12.5656 15.0908 12.2374 14.7626C11.9092 14.4344 11.4641 14.25 11 14.25C10.5359 14.25 10.0908 14.4344 9.76256 14.7626C9.43437 15.0907 9.25 15.5359 9.25 16C9.25 16.4641 9.43437 16.9092 9.76256 17.2374C10.0908 17.5656 10.5359 17.75 11 17.75ZM18.875 28.25C19.935 28.25 20.9589 27.8652 21.7565 27.167C22.5541 26.4689 23.0712 25.5049 23.2115 24.4542C22.3635 24.6515 21.4956 24.7507 20.625 24.75L14.7153 24.75L14.5928 24.7797C14.8003 25.7616 15.339 26.6422 16.1187 27.274C16.8983 27.9058 17.8715 28.2504 18.875 28.25Z" fill="white"/>
</svg>
